
<svg id="Layer_1" xmlns="http://www.w3.org/2000/svg" viewBox="0 0 167.4 77.7"><style>.st0{fill:#231F20;} .st1{fill:#D91926;} .st2{fill:#E3D8AC;}</style><path class="st0" d="M82 56.1c-2.7 0-9.1-.9-11.5-9.3-2.4-8.4 2.1-12.3 4.9-13.3L154.9 0h.7c.8 0 8.3.2 10.9 7.9 2.1 6.1-.1 10.7-1.7 12.4l-.4.4-79.7 35-.3.1c-.1.1-1 .3-2.4.3z"/><path class="st1" d="M109.1 33c-1.6-5.2-4.9-6.9-7-7.5-3.4 1.4-6.9 2.9-10.3 4.3-4.7 2-9.4 4.5-14.2 6-1.4.4-1.8.7-.6 1.9.7.8 1.7 1.2 2.5 1.9s1.6 2.1 2.1 3c.5 1 .9 2.1 1.1 3.1.3 1.5.2 3.2-.3 4.6.6-1.7-.7-5.1-2.1-6.2-3.2-2.4-4 2-3.1 4.3 1 2.6 3.3 5.7 6.3 4.5.8-.3 1.6-.7 2.3-1 4.1-1.8 8.3-3.6 12.4-5.5l11.7-5.1c.4-1.5.5-4.2-.8-8.3zM163.7 8.9c-2.1-6.1-8.1-5.9-8.1-5.9l-22.9 9.6c2 .5 4.6 1.7 6.6 4.7 2.6 3.8 2.8 7.7 2.6 10 3-1.3 6-2.6 9-4 3.6-1.6 10.4-3.2 9.9-8.3.5.6.3 1.4.5 2.3.7 2.7 2.3-.3 2.7-1.4.7-2.2.5-4.7-.3-7z"/><path class="st0" d="M18.8 62.7c-.4-.2-1.4-.9-2-2.1-.4-.9-.7-2.1.6-5l.4-.9.9-.5c.1-.1 2.9-1.6 8.1-3.7 1.3-.5 3-.8 5.1-.8 4.4 0 10.3 1.2 15.4 2.2 2.5.5 4.9 1 6.8 1.2h.4c4.7 0 14.4-7.3 19.4-11.8l1.5-1.4 1.8.9c1.8.9 2.2 1.3 2.4 1.4 1.1 1 1.4 2.5.9 4.5l-.6 2.8-2.2-.4c-.3.1-1 .4-2.2 1.1-.6.3-1.6 1.2-2.8 2.1-4.2 3.4-10.4 8.4-16.9 9.3-.8.1-1.7.2-2.6.2-4.1 0-8.3-1.1-12.3-2.2-3.3-.9-6.4-1.7-9-1.8h-.2c-5.2 0-9 4.2-9 4.2L21 64l-2.2-1.3z"/><path class="st2" d="M75.9 43.5S61 57.1 53.6 56.1c-7.4-1.1-20.7-4.8-25.8-2.8-5.1 2-7.7 3.5-7.7 3.5s-.9 2-.6 2.5.9.9.9.9c.1.1 2.9-2.5 3.3-2.7.7-.4 1.6-.4 2.1-.7.5-.3.9-.4.9-1 0-.2-1.1-1.2-1.3-1.1 1.1-.5 2.2.2 3.3.4 1.2.2 2.1.1 3.3 0-.1-.6-.4-1-.8-1.4 1.5-.2 2.1.9 3.2 1.4 1 .4 1.9.4 3 .3-.1-.4.1-1-.1-1.4 1.4.1 1.7 1.9 2.6 2.6.4.3 3.9 1 3.9.8-.1-1.5-1.3-3.8 1-1.7 1.3 1.1 2.2 2.3 3.9 2.7.5.1 1.9.5 2.3.1.2-.2.8-.9.1-1.1.6.2 1.1 0 1.7.1.7.2 1 .7 1.6.9 1.1.4 2.5.5 3.7.3.3-.1 2.6-1 2.4-1.2-.5-.5-1.4-.5-1.9-1.1.8-.8 2.4-1 3-.2.9-.2 2.3-.7 3.1-1.2.2-.2 1.4-1.6 1.4-1.7-.1 0-1.1-.4-1.1-.3.6-.6 1.7-.6 2.5-.8.4-.1 3.8-2.5 3.8-2.5-.5-.2-1-.4-1.4-.7 1.6-1 3.4-.7 5.1-1.4 1-.4 1.5-1.2 2.7-1.3.1-.4.3-1.4 0-1.7-.4-.4-1.8-1.1-1.8-1.1z"/><path class="st0" d="M18.1 51.9c-.9-2.2-.7-5.1-.8-7.4-.1-1.4-.4-4.4.6-5.5 2.2 1.2.7 5.8.7 7.8 0 1.9.1 3.7-.5 5.5M14.8 55.7c-2.3-.7-4.5-2.5-6.4-3.8-1.2-.8-3.8-2.3-4.1-3.8 2.3-1.1 5 3 6.6 4.1 1.5 1.1 3.1 2.1 4.1 3.7M25.3 63.4c2.3.7 4.4 2.7 6.3 4 1.1.8 3.7 2.4 3.9 3.9-2.3 1-4.9-3.1-6.5-4.3-1.5-1.2-3-2.2-4-3.8"/><path d="M0 64.3c.1-.1 3.1-.3 3.5-.4 1.2-.3 2.5-.8 3.6-1.4 1.9-.9 4.4-1.9 5.9-3.4-1.8.8-3.9.6-5.8 1.5-2 1-5.8 1.8-7.2 3.7zM13.7 77.7c-.1-.1 1.4-2.8 1.5-3.2.4-1.2.6-2.5.7-3.8.3-2.1.7-4.7.2-6.8-.3 1.9-1.5 3.6-1.8 5.7-.2 2.2-1.5 5.9-.6 8.1z"/><g><path class="st1" d="M114.4 25.8c.3-.1.6-.2 1-.3 1.6-.4.9-2.8-.7-2.4-2.1.5-4 1.7-6.1 2.3-1.6.4-.9 2.8.7 2.4.8-.2 1.6-.5 2.3-.8 1.4.6 2.5 2 2.7 3.5.2 1.6 2.7 1.6 2.5 0-.2-2-1.1-3.5-2.4-4.7zM125.2 19.1c-1.1-1.2-2.9.6-1.8 1.8l.9 1.2c-2.2-.9-4.7-1.3-6.8-.7-1.1.3-1.1 1.6-.5 2.2 0 0 0 .1.1.1 1.4 1.5 2.6 3.1 3.3 5 .6 1.5 3 .8 2.4-.7-.6-1.6-1.4-3-2.5-4.3 2.2.2 4.6 1.4 6.2 2.5l.2.2c.6.4 1.1.2 1.5-.3.4-.4.5-.9.2-1.5-.9-1.9-1.7-3.9-3.2-5.5zM135 21.4c-.8-1.3-1.5-2.6-2.5-3.7.1-.1.3-.1.4-.2 1.5-.5.9-2.9-.7-2.4-1.7.6-3.2 1.6-4.9 2.1-1.6.4-.9 2.8.7 2.4.7-.2 1.3-.5 2-.8.1 0 .1.1.2.1 1.3.8 1.9 2.5 2.7 3.7.8 1.5 2.9.2 2.1-1.2z"/></g></svg>